ISO-10303-21;
HEADER;
/*Generated by software containing ST-Developer
 * from STEP Tools, Inc. (www.steptools.com) 
 */
/*OPTION: using custom renumber hook */
/*description */
/*implementation_level */
FILE_DESCRIPTION(('STEP AP242 Edition 2','STEP AP242 Edition 2''CAx-IF Rec.Pracs.---Representation and Presentation of Product Manufa
cturing Information (PMI)---4.0---2014-10-13','STEP AP242 Edition 2''CAx-IF Rec.Pracs.---Representation and Presentation of Product Manufa
cturing Information (PMI)---4.0---2014-10-13''CAx-IF Rec.Pracs.---3D Tessellated Geometry---0.4---2014-09-14','STEP AP242 Edition 2''CAx-IF Rec.Pracs.---Representation and Presentation of Product Manufa
cturing Information (PMI)---4.0---2014-10-13''CAx-IF Rec.Pracs.---3D Tessellated Geometry---0.4---2014-09-14''2;1','STEP AP242 Edition 2''CAx-IF Rec.Pracs.---Representation and Presentation of Product Manufa
cturing Information (PMI)---4.0---2014-10-13''CAx-IF Rec.Pracs.---3D Tessellated Geometry---0.4---2014-09-14''2;1''CAx-IF Rec.Pracs.---User Defined Attributes---1.5---2016-08-15'),'2;1');
/*name */
/*time_stamp */
/*author */
/*organization */
/*preprocessor_version */
/*originating_system */
/*authorisation */
FILE_NAME('/vol/tmp/translate-17527212600880356060/Battery_Block.step','2026-03-16T18:51:47',(''),(''),'ST-DEVELOPER v20','ONSHAPE BY PTC INC, 1.212','  ');
FILE_SCHEMA(('AP242_MANAGED_MODEL_BASED_3D_ENGINEERING_MIM_LF { 1 0 10303 442 3 1 4 }'));
ENDSEC;
DATA;
#10=SHAPE_REPRESENTATION_RELATIONSHIP('','',#281,#11);
#11=ADVANCED_BREP_SHAPE_REPRESENTATION('',(#279),#459);
#12=CYLINDRICAL_SURFACE('',#302,0.003);
#13=CYLINDRICAL_SURFACE('',#303,0.003);
#14=CYLINDRICAL_SURFACE('',#304,0.003);
#15=CYLINDRICAL_SURFACE('',#305,0.003);
#16=CIRCLE('',#284,0.003);
#17=CIRCLE('',#285,0.003);
#18=CIRCLE('',#286,0.003);
#19=CIRCLE('',#287,0.003);
#20=CIRCLE('',#293,0.003);
#21=CIRCLE('',#294,0.003);
#22=CIRCLE('',#295,0.003);
#23=CIRCLE('',#296,0.003);
#24=ORIENTED_EDGE('',*,*,#96,.T.);
#25=ORIENTED_EDGE('',*,*,#97,.T.);
#26=ORIENTED_EDGE('',*,*,#98,.T.);
#27=ORIENTED_EDGE('',*,*,#99,.T.);
#28=ORIENTED_EDGE('',*,*,#100,.F.);
#29=ORIENTED_EDGE('',*,*,#101,.T.);
#30=ORIENTED_EDGE('',*,*,#102,.F.);
#31=ORIENTED_EDGE('',*,*,#103,.T.);
#32=ORIENTED_EDGE('',*,*,#104,.F.);
#33=ORIENTED_EDGE('',*,*,#105,.T.);
#34=ORIENTED_EDGE('',*,*,#106,.T.);
#35=ORIENTED_EDGE('',*,*,#107,.F.);
#36=ORIENTED_EDGE('',*,*,#102,.T.);
#37=ORIENTED_EDGE('',*,*,#108,.T.);
#38=ORIENTED_EDGE('',*,*,#109,.F.);
#39=ORIENTED_EDGE('',*,*,#110,.T.);
#40=ORIENTED_EDGE('',*,*,#111,.T.);
#41=ORIENTED_EDGE('',*,*,#112,.T.);
#42=ORIENTED_EDGE('',*,*,#96,.F.);
#43=ORIENTED_EDGE('',*,*,#113,.T.);
#44=ORIENTED_EDGE('',*,*,#98,.F.);
#45=ORIENTED_EDGE('',*,*,#114,.T.);
#46=ORIENTED_EDGE('',*,*,#115,.T.);
#47=ORIENTED_EDGE('',*,*,#116,.T.);
#48=ORIENTED_EDGE('',*,*,#100,.T.);
#49=ORIENTED_EDGE('',*,*,#117,.T.);
#50=ORIENTED_EDGE('',*,*,#118,.F.);
#51=ORIENTED_EDGE('',*,*,#119,.T.);
#52=ORIENTED_EDGE('',*,*,#115,.F.);
#53=ORIENTED_EDGE('',*,*,#120,.T.);
#54=ORIENTED_EDGE('',*,*,#111,.F.);
#55=ORIENTED_EDGE('',*,*,#121,.T.);
#56=ORIENTED_EDGE('',*,*,#109,.T.);
#57=ORIENTED_EDGE('',*,*,#122,.T.);
#58=ORIENTED_EDGE('',*,*,#118,.T.);
#59=ORIENTED_EDGE('',*,*,#123,.T.);
#60=ORIENTED_EDGE('',*,*,#124,.T.);
#61=ORIENTED_EDGE('',*,*,#125,.F.);
#62=ORIENTED_EDGE('',*,*,#105,.F.);
#63=ORIENTED_EDGE('',*,*,#126,.T.);
#64=ORIENTED_EDGE('',*,*,#127,.F.);
#65=ORIENTED_EDGE('',*,*,#126,.F.);
#66=ORIENTED_EDGE('',*,*,#104,.T.);
#67=ORIENTED_EDGE('',*,*,#128,.T.);
#68=ORIENTED_EDGE('',*,*,#129,.F.);
#69=ORIENTED_EDGE('',*,*,#128,.F.);
#70=ORIENTED_EDGE('',*,*,#107,.T.);
#71=ORIENTED_EDGE('',*,*,#130,.T.);
#72=ORIENTED_EDGE('',*,*,#131,.T.);
#73=ORIENTED_EDGE('',*,*,#130,.F.);
#74=ORIENTED_EDGE('',*,*,#106,.F.);
#75=ORIENTED_EDGE('',*,*,#125,.T.);
#76=ORIENTED_EDGE('',*,*,#124,.F.);
#77=ORIENTED_EDGE('',*,*,#127,.T.);
#78=ORIENTED_EDGE('',*,*,#129,.T.);
#79=ORIENTED_EDGE('',*,*,#131,.F.);
#80=ORIENTED_EDGE('',*,*,#97,.F.);
#81=ORIENTED_EDGE('',*,*,#112,.F.);
#82=ORIENTED_EDGE('',*,*,#120,.F.);
#83=ORIENTED_EDGE('',*,*,#114,.F.);
#84=ORIENTED_EDGE('',*,*,#99,.F.);
#85=ORIENTED_EDGE('',*,*,#116,.F.);
#86=ORIENTED_EDGE('',*,*,#123,.F.);
#87=ORIENTED_EDGE('',*,*,#117,.F.);
#88=ORIENTED_EDGE('',*,*,#101,.F.);
#89=ORIENTED_EDGE('',*,*,#119,.F.);
#90=ORIENTED_EDGE('',*,*,#122,.F.);
#91=ORIENTED_EDGE('',*,*,#108,.F.);
#92=ORIENTED_EDGE('',*,*,#103,.F.);
#93=ORIENTED_EDGE('',*,*,#110,.F.);
#94=ORIENTED_EDGE('',*,*,#121,.F.);
#95=ORIENTED_EDGE('',*,*,#113,.F.);
#96=EDGE_CURVE('',#132,#133,#156,.T.);
#97=EDGE_CURVE('',#133,#134,#16,.T.);
#98=EDGE_CURVE('',#134,#135,#157,.T.);
#99=EDGE_CURVE('',#135,#136,#17,.T.);
#100=EDGE_CURVE('',#137,#136,#158,.T.);
#101=EDGE_CURVE('',#137,#138,#18,.T.);
#102=EDGE_CURVE('',#139,#138,#159,.T.);
#103=EDGE_CURVE('',#139,#132,#19,.T.);
#104=EDGE_CURVE('',#140,#141,#160,.T.);
#105=EDGE_CURVE('',#140,#142,#161,.T.);
#106=EDGE_CURVE('',#142,#143,#162,.T.);
#107=EDGE_CURVE('',#141,#143,#163,.T.);
#108=EDGE_CURVE('',#138,#144,#164,.T.);
#109=EDGE_CURVE('',#145,#144,#165,.T.);
#110=EDGE_CURVE('',#145,#139,#166,.F.);
#111=EDGE_CURVE('',#146,#147,#167,.T.);
#112=EDGE_CURVE('',#147,#133,#168,.F.);
#113=EDGE_CURVE('',#132,#146,#169,.T.);
#114=EDGE_CURVE('',#134,#148,#170,.T.);
#115=EDGE_CURVE('',#148,#149,#171,.T.);
#116=EDGE_CURVE('',#149,#135,#172,.F.);
#117=EDGE_CURVE('',#136,#150,#173,.T.);
#118=EDGE_CURVE('',#151,#150,#174,.T.);
#119=EDGE_CURVE('',#151,#137,#175,.F.);
#120=EDGE_CURVE('',#148,#147,#20,.F.);
#121=EDGE_CURVE('',#146,#145,#21,.F.);
#122=EDGE_CURVE('',#144,#151,#22,.F.);
#123=EDGE_CURVE('',#150,#149,#23,.F.);
#124=EDGE_CURVE('',#152,#153,#176,.T.);
#125=EDGE_CURVE('',#142,#153,#177,.T.);
#126=EDGE_CURVE('',#140,#152,#178,.T.);
#127=EDGE_CURVE('',#152,#154,#179,.T.);
#128=EDGE_CURVE('',#141,#154,#180,.T.);
#129=EDGE_CURVE('',#154,#155,#181,.T.);
#130=EDGE_CURVE('',#143,#155,#182,.T.);
#131=EDGE_CURVE('',#153,#155,#183,.T.);
#132=VERTEX_POINT('',#385);
#133=VERTEX_POINT('',#386);
#134=VERTEX_POINT('',#388);
#135=VERTEX_POINT('',#390);
#136=VERTEX_POINT('',#392);
#137=VERTEX_POINT('',#394);
#138=VERTEX_POINT('',#396);
#139=VERTEX_POINT('',#398);
#140=VERTEX_POINT('',#401);
#141=VERTEX_POINT('',#402);
#142=VERTEX_POINT('',#404);
#143=VERTEX_POINT('',#406);
#144=VERTEX_POINT('',#410);
#145=VERTEX_POINT('',#412);
#146=VERTEX_POINT('',#416);
#147=VERTEX_POINT('',#417);
#148=VERTEX_POINT('',#422);
#149=VERTEX_POINT('',#424);
#150=VERTEX_POINT('',#428);
#151=VERTEX_POINT('',#430);
#152=VERTEX_POINT('',#439);
#153=VERTEX_POINT('',#440);
#154=VERTEX_POINT('',#445);
#155=VERTEX_POINT('',#449);
#156=LINE('',#384,#184);
#157=LINE('',#389,#185);
#158=LINE('',#393,#186);
#159=LINE('',#397,#187);
#160=LINE('',#400,#188);
#161=LINE('',#403,#189);
#162=LINE('',#405,#190);
#163=LINE('',#407,#191);
#164=LINE('',#409,#192);
#165=LINE('',#411,#193);
#166=LINE('',#413,#194);
#167=LINE('',#415,#195);
#168=LINE('',#418,#196);
#169=LINE('',#419,#197);
#170=LINE('',#421,#198);
#171=LINE('',#423,#199);
#172=LINE('',#425,#200);
#173=LINE('',#427,#201);
#174=LINE('',#429,#202);
#175=LINE('',#431,#203);
#176=LINE('',#438,#204);
#177=LINE('',#441,#205);
#178=LINE('',#442,#206);
#179=LINE('',#444,#207);
#180=LINE('',#446,#208);
#181=LINE('',#448,#209);
#182=LINE('',#450,#210);
#183=LINE('',#452,#211);
#184=VECTOR('',#310,1.);
#185=VECTOR('',#313,1.);
#186=VECTOR('',#316,1.);
#187=VECTOR('',#319,1.);
#188=VECTOR('',#322,1.);
#189=VECTOR('',#323,1.);
#190=VECTOR('',#324,1.);
#191=VECTOR('',#325,1.);
#192=VECTOR('',#328,1.);
#193=VECTOR('',#329,1.);
#194=VECTOR('',#330,1.);
#195=VECTOR('',#333,1.);
#196=VECTOR('',#334,1.);
#197=VECTOR('',#335,1.);
#198=VECTOR('',#338,1.);
#199=VECTOR('',#339,1.);
#200=VECTOR('',#340,1.);
#201=VECTOR('',#343,1.);
#202=VECTOR('',#344,1.);
#203=VECTOR('',#345,1.);
#204=VECTOR('',#358,1.);
#205=VECTOR('',#359,1.);
#206=VECTOR('',#360,1.);
#207=VECTOR('',#363,1.);
#208=VECTOR('',#364,1.);
#209=VECTOR('',#367,1.);
#210=VECTOR('',#368,1.);
#211=VECTOR('',#371,1.);
#212=EDGE_LOOP('',(#24,#25,#26,#27,#28,#29,#30,#31));
#213=EDGE_LOOP('',(#32,#33,#34,#35));
#214=EDGE_LOOP('',(#36,#37,#38,#39));
#215=EDGE_LOOP('',(#40,#41,#42,#43));
#216=EDGE_LOOP('',(#44,#45,#46,#47));
#217=EDGE_LOOP('',(#48,#49,#50,#51));
#218=EDGE_LOOP('',(#52,#53,#54,#55,#56,#57,#58,#59));
#219=EDGE_LOOP('',(#60,#61,#62,#63));
#220=EDGE_LOOP('',(#64,#65,#66,#67));
#221=EDGE_LOOP('',(#68,#69,#70,#71));
#222=EDGE_LOOP('',(#72,#73,#74,#75));
#223=EDGE_LOOP('',(#76,#77,#78,#79));
#224=EDGE_LOOP('',(#80,#81,#82,#83));
#225=EDGE_LOOP('',(#84,#85,#86,#87));
#226=EDGE_LOOP('',(#88,#89,#90,#91));
#227=EDGE_LOOP('',(#92,#93,#94,#95));
#228=FACE_BOUND('',#212,.T.);
#229=FACE_BOUND('',#213,.T.);
#230=FACE_BOUND('',#214,.T.);
#231=FACE_BOUND('',#215,.T.);
#232=FACE_BOUND('',#216,.T.);
#233=FACE_BOUND('',#217,.T.);
#234=FACE_BOUND('',#218,.T.);
#235=FACE_BOUND('',#219,.T.);
#236=FACE_BOUND('',#220,.T.);
#237=FACE_BOUND('',#221,.T.);
#238=FACE_BOUND('',#222,.T.);
#239=FACE_BOUND('',#223,.T.);
#240=FACE_BOUND('',#224,.T.);
#241=FACE_BOUND('',#225,.T.);
#242=FACE_BOUND('',#226,.T.);
#243=FACE_BOUND('',#227,.T.);
#244=PLANE('',#283);
#245=PLANE('',#288);
#246=PLANE('',#289);
#247=PLANE('',#290);
#248=PLANE('',#291);
#249=PLANE('',#292);
#250=PLANE('',#297);
#251=PLANE('',#298);
#252=PLANE('',#299);
#253=PLANE('',#300);
#254=PLANE('',#301);
#255=ADVANCED_FACE('',(#228,#229),#244,.T.);
#256=ADVANCED_FACE('',(#230),#245,.T.);
#257=ADVANCED_FACE('',(#231),#246,.F.);
#258=ADVANCED_FACE('',(#232),#247,.F.);
#259=ADVANCED_FACE('',(#233),#248,.T.);
#260=ADVANCED_FACE('',(#234),#249,.F.);
#261=ADVANCED_FACE('',(#235),#250,.F.);
#262=ADVANCED_FACE('',(#236),#251,.T.);
#263=ADVANCED_FACE('',(#237),#252,.T.);
#264=ADVANCED_FACE('',(#238),#253,.F.);
#265=ADVANCED_FACE('',(#239),#254,.T.);
#266=ADVANCED_FACE('',(#240),#12,.T.);
#267=ADVANCED_FACE('',(#241),#13,.T.);
#268=ADVANCED_FACE('',(#242),#14,.T.);
#269=ADVANCED_FACE('',(#243),#15,.T.);
#270=CLOSED_SHELL('',(#255,#256,#257,#258,#259,#260,#261,#262,#263,#264,#265,#266,#267,#268,#269));
#271=STYLED_ITEM('',(#272),#279);
#272=PRESENTATION_STYLE_ASSIGNMENT((#273));
#273=SURFACE_STYLE_USAGE(.BOTH.,#274);
#274=SURFACE_SIDE_STYLE('',(#275));
#275=SURFACE_STYLE_FILL_AREA(#276);
#276=FILL_AREA_STYLE('',(#277));
#277=FILL_AREA_STYLE_COLOUR('',#278);
#278=COLOUR_RGB('',0.615686274509804,0.811764705882353,0.929411764705882);
#279=MANIFOLD_SOLID_BREP('Part 1',#270);
#280=SHAPE_DEFINITION_REPRESENTATION(#464,#281);
#281=SHAPE_REPRESENTATION('Part 1',(#282),#459);
#282=AXIS2_PLACEMENT_3D('',#382,#306,#307);
#283=AXIS2_PLACEMENT_3D('',#383,#308,#309);
#284=AXIS2_PLACEMENT_3D('',#387,#311,#312);
#285=AXIS2_PLACEMENT_3D('',#391,#314,#315);
#286=AXIS2_PLACEMENT_3D('',#395,#317,#318);
#287=AXIS2_PLACEMENT_3D('',#399,#320,#321);
#288=AXIS2_PLACEMENT_3D('',#408,#326,#327);
#289=AXIS2_PLACEMENT_3D('',#414,#331,#332);
#290=AXIS2_PLACEMENT_3D('',#420,#336,#337);
#291=AXIS2_PLACEMENT_3D('',#426,#341,#342);
#292=AXIS2_PLACEMENT_3D('',#432,#346,#347);
#293=AXIS2_PLACEMENT_3D('',#433,#348,#349);
#294=AXIS2_PLACEMENT_3D('',#434,#350,#351);
#295=AXIS2_PLACEMENT_3D('',#435,#352,#353);
#296=AXIS2_PLACEMENT_3D('',#436,#354,#355);
#297=AXIS2_PLACEMENT_3D('',#437,#356,#357);
#298=AXIS2_PLACEMENT_3D('',#443,#361,#362);
#299=AXIS2_PLACEMENT_3D('',#447,#365,#366);
#300=AXIS2_PLACEMENT_3D('',#451,#369,#370);
#301=AXIS2_PLACEMENT_3D('',#453,#372,#373);
#302=AXIS2_PLACEMENT_3D('',#454,#374,#375);
#303=AXIS2_PLACEMENT_3D('',#455,#376,#377);
#304=AXIS2_PLACEMENT_3D('',#456,#378,#379);
#305=AXIS2_PLACEMENT_3D('',#457,#380,#381);
#306=DIRECTION('',(0.,0.,1.));
#307=DIRECTION('',(1.,0.,0.));
#308=DIRECTION('',(0.,0.,1.));
#309=DIRECTION('',(1.,0.,0.));
#310=DIRECTION('',(-3.46944695195362E-16,-1.,0.));
#311=DIRECTION('',(0.,0.,1.));
#312=DIRECTION('',(1.,0.,0.));
#313=DIRECTION('',(1.,0.,0.));
#314=DIRECTION('',(0.,0.,1.));
#315=DIRECTION('',(1.,0.,0.));
#316=DIRECTION('',(-3.46944695195362E-16,-1.,0.));
#317=DIRECTION('',(0.,0.,1.));
#318=DIRECTION('',(1.,0.,0.));
#319=DIRECTION('',(1.,0.,0.));
#320=DIRECTION('',(0.,0.,1.));
#321=DIRECTION('',(1.,0.,0.));
#322=DIRECTION('',(-3.46944695195362E-16,-1.,0.));
#323=DIRECTION('',(1.,0.,0.));
#324=DIRECTION('',(-3.46944695195362E-16,-1.,0.));
#325=DIRECTION('',(1.,0.,0.));
#326=DIRECTION('',(0.,1.,0.));
#327=DIRECTION('',(0.,0.,1.));
#328=DIRECTION('',(0.,0.,-1.));
#329=DIRECTION('',(1.,0.,0.));
#330=DIRECTION('',(0.,0.,-1.));
#331=DIRECTION('',(1.,-3.46944695195362E-16,0.));
#332=DIRECTION('',(3.46944695195362E-16,1.,0.));
#333=DIRECTION('',(-3.46944695195362E-16,-1.,0.));
#334=DIRECTION('',(0.,0.,-1.));
#335=DIRECTION('',(0.,0.,-1.));
#336=DIRECTION('',(0.,1.,0.));
#337=DIRECTION('',(0.,0.,1.));
#338=DIRECTION('',(0.,0.,-1.));
#339=DIRECTION('',(1.,0.,0.));
#340=DIRECTION('',(0.,0.,-1.));
#341=DIRECTION('',(1.,-3.46944695195362E-16,0.));
#342=DIRECTION('',(3.46944695195362E-16,1.,0.));
#343=DIRECTION('',(0.,0.,-1.));
#344=DIRECTION('',(-3.46944695195362E-16,-1.,0.));
#345=DIRECTION('',(0.,0.,-1.));
#346=DIRECTION('',(0.,0.,1.));
#347=DIRECTION('',(1.,0.,0.));
#348=DIRECTION('',(0.,0.,1.));
#349=DIRECTION('',(1.,0.,0.));
#350=DIRECTION('',(0.,0.,1.));
#351=DIRECTION('',(1.,0.,0.));
#352=DIRECTION('',(0.,0.,1.));
#353=DIRECTION('',(1.,0.,0.));
#354=DIRECTION('',(0.,0.,1.));
#355=DIRECTION('',(1.,0.,0.));
#356=DIRECTION('',(0.,1.,0.));
#357=DIRECTION('',(0.,0.,1.));
#358=DIRECTION('',(1.,0.,0.));
#359=DIRECTION('',(0.,0.,-1.));
#360=DIRECTION('',(0.,0.,-1.));
#361=DIRECTION('',(1.,-3.46944695195362E-16,0.));
#362=DIRECTION('',(3.46944695195362E-16,1.,0.));
#363=DIRECTION('',(-3.46944695195362E-16,-1.,0.));
#364=DIRECTION('',(0.,0.,-1.));
#365=DIRECTION('',(0.,1.,0.));
#366=DIRECTION('',(0.,0.,1.));
#367=DIRECTION('',(1.,0.,0.));
#368=DIRECTION('',(0.,0.,-1.));
#369=DIRECTION('',(1.,-3.46944695195362E-16,0.));
#370=DIRECTION('',(3.46944695195362E-16,1.,0.));
#371=DIRECTION('',(-3.46944695195362E-16,-1.,0.));
#372=DIRECTION('',(0.,0.,1.));
#373=DIRECTION('',(1.,0.,0.));
#374=DIRECTION('',(0.,0.,-1.));
#375=DIRECTION('',(-1.,0.,0.));
#376=DIRECTION('',(0.,0.,1.));
#377=DIRECTION('',(1.,0.,0.));
#378=DIRECTION('',(0.,0.,-1.));
#379=DIRECTION('',(-1.,0.,0.));
#380=DIRECTION('',(0.,0.,1.));
#381=DIRECTION('',(1.,0.,0.));
#382=CARTESIAN_POINT('',(0.,0.,0.));
#383=CARTESIAN_POINT('',(6.93889390390723E-18,6.93889390390723E-18,0.035));
#384=CARTESIAN_POINT('',(-0.05,1.38777878078145E-17,0.035));
#385=CARTESIAN_POINT('',(-0.05,0.017,0.035));
#386=CARTESIAN_POINT('',(-0.05,-0.017,0.035));
#387=CARTESIAN_POINT('',(-0.047,-0.017,0.035));
#388=CARTESIAN_POINT('',(-0.047,-0.02,0.035));
#389=CARTESIAN_POINT('',(0.,-0.02,0.035));
#390=CARTESIAN_POINT('',(0.047,-0.02,0.035));
#391=CARTESIAN_POINT('',(0.047,-0.017,0.035));
#392=CARTESIAN_POINT('',(0.05,-0.017,0.035));
#393=CARTESIAN_POINT('',(0.05,1.04083408558608E-17,0.035));
#394=CARTESIAN_POINT('',(0.05,0.017,0.035));
#395=CARTESIAN_POINT('',(0.047,0.017,0.035));
#396=CARTESIAN_POINT('',(0.047,0.02,0.035));
#397=CARTESIAN_POINT('',(1.7347234759768E-17,0.02,0.035));
#398=CARTESIAN_POINT('',(-0.047,0.02,0.035));
#399=CARTESIAN_POINT('',(-0.047,0.017,0.035));
#400=CARTESIAN_POINT('',(-0.048,1.31838984174237E-17,0.035));
#401=CARTESIAN_POINT('',(-0.048,0.018,0.035));
#402=CARTESIAN_POINT('',(-0.048,-0.018,0.035));
#403=CARTESIAN_POINT('',(1.7347234759768E-17,0.018,0.035));
#404=CARTESIAN_POINT('',(0.048,0.018,0.035));
#405=CARTESIAN_POINT('',(0.048,1.11022302462516E-17,0.035));
#406=CARTESIAN_POINT('',(0.048,-0.018,0.035));
#407=CARTESIAN_POINT('',(0.,-0.018,0.035));
#408=CARTESIAN_POINT('',(1.7347234759768E-17,0.02,0.035));
#409=CARTESIAN_POINT('',(0.047,0.02,0.035));
#410=CARTESIAN_POINT('',(0.047,0.02,0.));
#411=CARTESIAN_POINT('',(1.7347234759768E-17,0.02,0.));
#412=CARTESIAN_POINT('',(-0.047,0.02,0.));
#413=CARTESIAN_POINT('',(-0.047,0.02,0.035));
#414=CARTESIAN_POINT('',(-0.05,1.38777878078145E-17,0.035));
#415=CARTESIAN_POINT('',(-0.05,1.38777878078145E-17,0.));
#416=CARTESIAN_POINT('',(-0.05,0.017,0.));
#417=CARTESIAN_POINT('',(-0.05,-0.017,0.));
#418=CARTESIAN_POINT('',(-0.05,-0.017,0.035));
#419=CARTESIAN_POINT('',(-0.05,0.017,0.));
#420=CARTESIAN_POINT('',(0.,-0.02,0.035));
#421=CARTESIAN_POINT('',(-0.047,-0.02,0.035));
#422=CARTESIAN_POINT('',(-0.047,-0.02,0.));
#423=CARTESIAN_POINT('',(0.,-0.02,0.));
#424=CARTESIAN_POINT('',(0.047,-0.02,0.));
#425=CARTESIAN_POINT('',(0.047,-0.02,0.035));
#426=CARTESIAN_POINT('',(0.05,1.04083408558608E-17,0.035));
#427=CARTESIAN_POINT('',(0.05,-0.017,0.));
#428=CARTESIAN_POINT('',(0.05,-0.017,0.));
#429=CARTESIAN_POINT('',(0.05,1.04083408558608E-17,0.));
#430=CARTESIAN_POINT('',(0.05,0.017,0.));
#431=CARTESIAN_POINT('',(0.05,0.017,0.035));
#432=CARTESIAN_POINT('',(6.93889390390723E-18,6.93889390390723E-18,0.));
#433=CARTESIAN_POINT('',(-0.047,-0.017,0.));
#434=CARTESIAN_POINT('',(-0.047,0.017,0.));
#435=CARTESIAN_POINT('',(0.047,0.017,0.));
#436=CARTESIAN_POINT('',(0.047,-0.017,0.));
#437=CARTESIAN_POINT('',(1.7347234759768E-17,0.018,0.035));
#438=CARTESIAN_POINT('',(1.7347234759768E-17,0.018,0.002));
#439=CARTESIAN_POINT('',(-0.048,0.018,0.002));
#440=CARTESIAN_POINT('',(0.048,0.018,0.002));
#441=CARTESIAN_POINT('',(0.048,0.018,0.035));
#442=CARTESIAN_POINT('',(-0.048,0.018,0.035));
#443=CARTESIAN_POINT('',(-0.048,1.31838984174237E-17,0.035));
#444=CARTESIAN_POINT('',(-0.048,1.31838984174237E-17,0.002));
#445=CARTESIAN_POINT('',(-0.048,-0.018,0.002));
#446=CARTESIAN_POINT('',(-0.048,-0.018,0.035));
#447=CARTESIAN_POINT('',(0.,-0.018,0.035));
#448=CARTESIAN_POINT('',(0.,-0.018,0.002));
#449=CARTESIAN_POINT('',(0.048,-0.018,0.002));
#450=CARTESIAN_POINT('',(0.048,-0.018,0.035));
#451=CARTESIAN_POINT('',(0.048,1.11022302462516E-17,0.035));
#452=CARTESIAN_POINT('',(0.048,1.11022302462516E-17,0.002));
#453=CARTESIAN_POINT('',(6.93889390390723E-18,6.93889390390723E-18,0.002));
#454=CARTESIAN_POINT('',(-0.047,-0.017,0.035));
#455=CARTESIAN_POINT('',(0.047,-0.017,0.035));
#456=CARTESIAN_POINT('',(0.047,0.017,0.035));
#457=CARTESIAN_POINT('',(-0.047,0.017,0.035));
#458=MECHANICAL_DESIGN_GEOMETRIC_PRESENTATION_REPRESENTATION('',(#271),#459);
#459=(
GEOMETRIC_REPRESENTATION_CONTEXT(3)
GLOBAL_UNCERTAINTY_ASSIGNED_CONTEXT((#460))
GLOBAL_UNIT_ASSIGNED_CONTEXT((#463,#462,#461))
REPRESENTATION_CONTEXT('Part 1','TOP_LEVEL_ASSEMBLY_PART')
);
#460=UNCERTAINTY_MEASURE_WITH_UNIT(LENGTH_MEASURE(1.E-08),#463,'DISTANCE_ACCURACY_VALUE','Maximum Tolerance applied to model');
#461=(
NAMED_UNIT(*)
SI_UNIT($,.STERADIAN.)
SOLID_ANGLE_UNIT()
);
#462=(
NAMED_UNIT(*)
PLANE_ANGLE_UNIT()
SI_UNIT($,.RADIAN.)
);
#463=(
LENGTH_UNIT()
NAMED_UNIT(*)
SI_UNIT($,.METRE.)
);
#464=PRODUCT_DEFINITION_SHAPE('','',#465);
#465=PRODUCT_DEFINITION('','',#467,#466);
#466=PRODUCT_DEFINITION_CONTEXT('',#473,'design');
#467=PRODUCT_DEFINITION_FORMATION_WITH_SPECIFIED_SOURCE('','',#469,.NOT_KNOWN.);
#468=PRODUCT_RELATED_PRODUCT_CATEGORY('','',(#469));
#469=PRODUCT('Part 1','Part 1','Part 1',(#471));
#470=PRODUCT_CATEGORY('','');
#471=PRODUCT_CONTEXT('',#473,'mechanical');
#472=APPLICATION_PROTOCOL_DEFINITION('international standard','ap242_managed_model_based_3d_engineering',2020,#473);
#473=APPLICATION_CONTEXT('managed model based 3d engineering');
ENDSEC;
END-ISO-10303-21;
