ISO-10303-21;
HEADER;
/*Generated by software containing ST-Developer
 * from STEP Tools, Inc. (www.steptools.com) 
 */
/*OPTION: using custom renumber hook */
/*description */
/*implementation_level */
FILE_DESCRIPTION(('STEP AP242 Edition 2','STEP AP242 Edition 2''CAx-IF Rec.Pracs.---Representation and Presentation of Product Manufa
cturing Information (PMI)---4.0---2014-10-13','STEP AP242 Edition 2''CAx-IF Rec.Pracs.---Representation and Presentation of Product Manufa
cturing Information (PMI)---4.0---2014-10-13''CAx-IF Rec.Pracs.---3D Tessellated Geometry---0.4---2014-09-14','STEP AP242 Edition 2''CAx-IF Rec.Pracs.---Representation and Presentation of Product Manufa
cturing Information (PMI)---4.0---2014-10-13''CAx-IF Rec.Pracs.---3D Tessellated Geometry---0.4---2014-09-14''2;1','STEP AP242 Edition 2''CAx-IF Rec.Pracs.---Representation and Presentation of Product Manufa
cturing Information (PMI)---4.0---2014-10-13''CAx-IF Rec.Pracs.---3D Tessellated Geometry---0.4---2014-09-14''2;1''CAx-IF Rec.Pracs.---User Defined Attributes---1.5---2016-08-15'),'2;1');
/*name */
/*time_stamp */
/*author */
/*organization */
/*preprocessor_version */
/*originating_system */
/*authorisation */
FILE_NAME('/vol/tmp/translate-1756104115425266982/Camera_Bracket.step','2026-03-16T18:51:18',(''),(''),'ST-DEVELOPER v20','ONSHAPE BY PTC INC, 1.212','  ');
FILE_SCHEMA(('AP242_MANAGED_MODEL_BASED_3D_ENGINEERING_MIM_LF { 1 0 10303 442 3 1 4 }'));
ENDSEC;
DATA;
#10=SHAPE_REPRESENTATION_RELATIONSHIP('','',#561,#11);
#11=ADVANCED_BREP_SHAPE_REPRESENTATION('',(#559),#951);
#12=CYLINDRICAL_SURFACE('',#601,0.001);
#13=CYLINDRICAL_SURFACE('',#604,0.001);
#14=CYLINDRICAL_SURFACE('',#607,0.001);
#15=CYLINDRICAL_SURFACE('',#610,0.001);
#16=CYLINDRICAL_SURFACE('',#613,0.002);
#17=CYLINDRICAL_SURFACE('',#614,0.002);
#18=CYLINDRICAL_SURFACE('',#615,0.002);
#19=CYLINDRICAL_SURFACE('',#616,0.002);
#20=CYLINDRICAL_SURFACE('',#617,0.002);
#21=CYLINDRICAL_SURFACE('',#618,0.002);
#22=CYLINDRICAL_SURFACE('',#619,0.002);
#23=CYLINDRICAL_SURFACE('',#620,0.002);
#24=CYLINDRICAL_SURFACE('',#621,0.002);
#25=CYLINDRICAL_SURFACE('',#622,0.002);
#26=LINE('',#797,#72);
#27=LINE('',#802,#73);
#28=LINE('',#806,#74);
#29=LINE('',#810,#75);
#30=LINE('',#818,#76);
#31=LINE('',#821,#77);
#32=LINE('',#823,#78);
#33=LINE('',#827,#79);
#34=LINE('',#831,#80);
#35=LINE('',#834,#81);
#36=LINE('',#836,#82);
#37=LINE('',#838,#83);
#38=LINE('',#840,#84);
#39=LINE('',#843,#85);
#40=LINE('',#845,#86);
#41=LINE('',#847,#87);
#42=LINE('',#850,#88);
#43=LINE('',#852,#89);
#44=LINE('',#854,#90);
#45=LINE('',#858,#91);
#46=LINE('',#860,#92);
#47=LINE('',#862,#93);
#48=LINE('',#864,#94);
#49=LINE('',#867,#95);
#50=LINE('',#870,#96);
#51=LINE('',#872,#97);
#52=LINE('',#874,#98);
#53=LINE('',#876,#99);
#54=LINE('',#880,#100);
#55=LINE('',#882,#101);
#56=LINE('',#891,#102);
#57=LINE('',#895,#103);
#58=LINE('',#899,#104);
#59=LINE('',#901,#105);
#60=LINE('',#903,#106);
#61=LINE('',#905,#107);
#62=LINE('',#907,#108);
#63=LINE('',#908,#109);
#64=LINE('',#909,#110);
#65=LINE('',#911,#111);
#66=LINE('',#913,#112);
#67=LINE('',#914,#113);
#68=LINE('',#916,#114);
#69=LINE('',#917,#115);
#70=LINE('',#919,#116);
#71=LINE('',#920,#117);
#72=VECTOR('',#631,1.);
#73=VECTOR('',#634,1.);
#74=VECTOR('',#637,1.);
#75=VECTOR('',#640,1.);
#76=VECTOR('',#649,1.);
#77=VECTOR('',#650,1.);
#78=VECTOR('',#651,1.);
#79=VECTOR('',#654,1.);
#80=VECTOR('',#659,1.);
#81=VECTOR('',#660,1.);
#82=VECTOR('',#661,1.);
#83=VECTOR('',#662,1.);
#84=VECTOR('',#665,1.);
#85=VECTOR('',#666,1.);
#86=VECTOR('',#667,1.);
#87=VECTOR('',#668,1.);
#88=VECTOR('',#671,1.);
#89=VECTOR('',#672,1.);
#90=VECTOR('',#673,1.);
#91=VECTOR('',#678,1.);
#92=VECTOR('',#679,1.);
#93=VECTOR('',#680,1.);
#94=VECTOR('',#683,1.);
#95=VECTOR('',#684,1.);
#96=VECTOR('',#687,1.);
#97=VECTOR('',#688,1.);
#98=VECTOR('',#689,1.);
#99=VECTOR('',#690,1.);
#100=VECTOR('',#693,1.);
#101=VECTOR('',#696,1.);
#102=VECTOR('',#713,1.);
#103=VECTOR('',#716,1.);
#104=VECTOR('',#719,1.);
#105=VECTOR('',#722,1.);
#106=VECTOR('',#723,1.);
#107=VECTOR('',#724,1.);
#108=VECTOR('',#727,1.);
#109=VECTOR('',#728,1.);
#110=VECTOR('',#729,1.);
#111=VECTOR('',#730,1.);
#112=VECTOR('',#733,1.);
#113=VECTOR('',#734,1.);
#114=VECTOR('',#737,1.);
#115=VECTOR('',#738,1.);
#116=VECTOR('',#739,1.);
#117=VECTOR('',#740,1.);
#118=ORIENTED_EDGE('',*,*,#266,.T.);
#119=ORIENTED_EDGE('',*,*,#267,.F.);
#120=ORIENTED_EDGE('',*,*,#268,.F.);
#121=ORIENTED_EDGE('',*,*,#269,.T.);
#122=ORIENTED_EDGE('',*,*,#270,.F.);
#123=ORIENTED_EDGE('',*,*,#271,.T.);
#124=ORIENTED_EDGE('',*,*,#272,.T.);
#125=ORIENTED_EDGE('',*,*,#273,.T.);
#126=ORIENTED_EDGE('',*,*,#274,.T.);
#127=ORIENTED_EDGE('',*,*,#275,.T.);
#128=ORIENTED_EDGE('',*,*,#276,.F.);
#129=ORIENTED_EDGE('',*,*,#277,.T.);
#130=ORIENTED_EDGE('',*,*,#278,.F.);
#131=ORIENTED_EDGE('',*,*,#279,.T.);
#132=ORIENTED_EDGE('',*,*,#280,.T.);
#133=ORIENTED_EDGE('',*,*,#281,.T.);
#134=ORIENTED_EDGE('',*,*,#282,.T.);
#135=ORIENTED_EDGE('',*,*,#283,.T.);
#136=ORIENTED_EDGE('',*,*,#284,.F.);
#137=ORIENTED_EDGE('',*,*,#285,.T.);
#138=ORIENTED_EDGE('',*,*,#286,.T.);
#139=ORIENTED_EDGE('',*,*,#287,.T.);
#140=ORIENTED_EDGE('',*,*,#288,.F.);
#141=ORIENTED_EDGE('',*,*,#289,.T.);
#142=ORIENTED_EDGE('',*,*,#290,.T.);
#143=ORIENTED_EDGE('',*,*,#291,.T.);
#144=ORIENTED_EDGE('',*,*,#280,.F.);
#145=ORIENTED_EDGE('',*,*,#292,.T.);
#146=ORIENTED_EDGE('',*,*,#293,.F.);
#147=ORIENTED_EDGE('',*,*,#294,.F.);
#148=ORIENTED_EDGE('',*,*,#295,.F.);
#149=ORIENTED_EDGE('',*,*,#296,.T.);
#150=ORIENTED_EDGE('',*,*,#282,.F.);
#151=ORIENTED_EDGE('',*,*,#297,.T.);
#152=ORIENTED_EDGE('',*,*,#298,.T.);
#153=ORIENTED_EDGE('',*,*,#299,.T.);
#154=ORIENTED_EDGE('',*,*,#300,.T.);
#155=ORIENTED_EDGE('',*,*,#301,.F.);
#156=ORIENTED_EDGE('',*,*,#302,.T.);
#157=ORIENTED_EDGE('',*,*,#278,.T.);
#158=ORIENTED_EDGE('',*,*,#303,.T.);
#159=ORIENTED_EDGE('',*,*,#304,.F.);
#160=ORIENTED_EDGE('',*,*,#305,.T.);
#161=ORIENTED_EDGE('',*,*,#306,.T.);
#162=ORIENTED_EDGE('',*,*,#307,.T.);
#163=ORIENTED_EDGE('',*,*,#308,.F.);
#164=ORIENTED_EDGE('',*,*,#288,.T.);
#165=ORIENTED_EDGE('',*,*,#309,.T.);
#166=ORIENTED_EDGE('',*,*,#306,.F.);
#167=ORIENTED_EDGE('',*,*,#310,.T.);
#168=ORIENTED_EDGE('',*,*,#286,.F.);
#169=ORIENTED_EDGE('',*,*,#311,.T.);
#170=ORIENTED_EDGE('',*,*,#290,.F.);
#171=ORIENTED_EDGE('',*,*,#312,.T.);
#172=ORIENTED_EDGE('',*,*,#284,.T.);
#173=ORIENTED_EDGE('',*,*,#313,.T.);
#174=ORIENTED_EDGE('',*,*,#304,.T.);
#175=ORIENTED_EDGE('',*,*,#314,.T.);
#176=ORIENTED_EDGE('',*,*,#298,.F.);
#177=ORIENTED_EDGE('',*,*,#315,.T.);
#178=ORIENTED_EDGE('',*,*,#316,.T.);
#179=ORIENTED_EDGE('',*,*,#317,.T.);
#180=ORIENTED_EDGE('',*,*,#318,.F.);
#181=ORIENTED_EDGE('',*,*,#319,.T.);
#182=ORIENTED_EDGE('',*,*,#320,.F.);
#183=ORIENTED_EDGE('',*,*,#294,.T.);
#184=ORIENTED_EDGE('',*,*,#270,.T.);
#185=ORIENTED_EDGE('',*,*,#321,.T.);
#186=ORIENTED_EDGE('',*,*,#322,.F.);
#187=ORIENTED_EDGE('',*,*,#323,.T.);
#188=ORIENTED_EDGE('',*,*,#324,.T.);
#189=ORIENTED_EDGE('',*,*,#295,.T.);
#190=ORIENTED_EDGE('',*,*,#320,.T.);
#191=ORIENTED_EDGE('',*,*,#325,.T.);
#192=ORIENTED_EDGE('',*,*,#272,.F.);
#193=ORIENTED_EDGE('',*,*,#326,.T.);
#194=ORIENTED_EDGE('',*,*,#327,.T.);
#195=ORIENTED_EDGE('',*,*,#308,.T.);
#196=ORIENTED_EDGE('',*,*,#318,.T.);
#197=ORIENTED_EDGE('',*,*,#328,.T.);
#198=ORIENTED_EDGE('',*,*,#274,.F.);
#199=ORIENTED_EDGE('',*,*,#329,.T.);
#200=ORIENTED_EDGE('',*,*,#316,.F.);
#201=ORIENTED_EDGE('',*,*,#293,.T.);
#202=ORIENTED_EDGE('',*,*,#330,.T.);
#203=ORIENTED_EDGE('',*,*,#301,.T.);
#204=ORIENTED_EDGE('',*,*,#331,.F.);
#205=ORIENTED_EDGE('',*,*,#332,.T.);
#206=ORIENTED_EDGE('',*,*,#268,.T.);
#207=ORIENTED_EDGE('',*,*,#333,.T.);
#208=ORIENTED_EDGE('',*,*,#322,.T.);
#209=ORIENTED_EDGE('',*,*,#334,.T.);
#210=ORIENTED_EDGE('',*,*,#331,.T.);
#211=ORIENTED_EDGE('',*,*,#300,.F.);
#212=ORIENTED_EDGE('',*,*,#327,.F.);
#213=ORIENTED_EDGE('',*,*,#335,.T.);
#214=ORIENTED_EDGE('',*,*,#336,.F.);
#215=ORIENTED_EDGE('',*,*,#267,.T.);
#216=ORIENTED_EDGE('',*,*,#336,.T.);
#217=ORIENTED_EDGE('',*,*,#337,.T.);
#218=ORIENTED_EDGE('',*,*,#266,.F.);
#219=ORIENTED_EDGE('',*,*,#337,.F.);
#220=ORIENTED_EDGE('',*,*,#338,.F.);
#221=ORIENTED_EDGE('',*,*,#276,.T.);
#222=ORIENTED_EDGE('',*,*,#338,.T.);
#223=ORIENTED_EDGE('',*,*,#339,.T.);
#224=ORIENTED_EDGE('',*,*,#277,.F.);
#225=ORIENTED_EDGE('',*,*,#339,.F.);
#226=ORIENTED_EDGE('',*,*,#269,.F.);
#227=ORIENTED_EDGE('',*,*,#332,.F.);
#228=ORIENTED_EDGE('',*,*,#334,.F.);
#229=ORIENTED_EDGE('',*,*,#321,.F.);
#230=ORIENTED_EDGE('',*,*,#271,.F.);
#231=ORIENTED_EDGE('',*,*,#323,.F.);
#232=ORIENTED_EDGE('',*,*,#335,.F.);
#233=ORIENTED_EDGE('',*,*,#326,.F.);
#234=ORIENTED_EDGE('',*,*,#275,.F.);
#235=ORIENTED_EDGE('',*,*,#328,.F.);
#236=ORIENTED_EDGE('',*,*,#317,.F.);
#237=ORIENTED_EDGE('',*,*,#333,.F.);
#238=ORIENTED_EDGE('',*,*,#273,.F.);
#239=ORIENTED_EDGE('',*,*,#325,.F.);
#240=ORIENTED_EDGE('',*,*,#319,.F.);
#241=ORIENTED_EDGE('',*,*,#329,.F.);
#242=ORIENTED_EDGE('',*,*,#311,.F.);
#243=ORIENTED_EDGE('',*,*,#285,.F.);
#244=ORIENTED_EDGE('',*,*,#312,.F.);
#245=ORIENTED_EDGE('',*,*,#289,.F.);
#246=ORIENTED_EDGE('',*,*,#281,.F.);
#247=ORIENTED_EDGE('',*,*,#291,.F.);
#248=ORIENTED_EDGE('',*,*,#315,.F.);
#249=ORIENTED_EDGE('',*,*,#297,.F.);
#250=ORIENTED_EDGE('',*,*,#283,.F.);
#251=ORIENTED_EDGE('',*,*,#299,.F.);
#252=ORIENTED_EDGE('',*,*,#314,.F.);
#253=ORIENTED_EDGE('',*,*,#303,.F.);
#254=ORIENTED_EDGE('',*,*,#310,.F.);
#255=ORIENTED_EDGE('',*,*,#305,.F.);
#256=ORIENTED_EDGE('',*,*,#313,.F.);
#257=ORIENTED_EDGE('',*,*,#287,.F.);
#258=ORIENTED_EDGE('',*,*,#307,.F.);
#259=ORIENTED_EDGE('',*,*,#309,.F.);
#260=ORIENTED_EDGE('',*,*,#296,.F.);
#261=ORIENTED_EDGE('',*,*,#324,.F.);
#262=ORIENTED_EDGE('',*,*,#302,.F.);
#263=ORIENTED_EDGE('',*,*,#330,.F.);
#264=ORIENTED_EDGE('',*,*,#292,.F.);
#265=ORIENTED_EDGE('',*,*,#279,.F.);
#266=EDGE_CURVE('',#340,#340,#392,.T.);
#267=EDGE_CURVE('',#341,#341,#393,.T.);
#268=EDGE_CURVE('',#342,#343,#26,.T.);
#269=EDGE_CURVE('',#342,#344,#394,.T.);
#270=EDGE_CURVE('',#345,#344,#27,.T.);
#271=EDGE_CURVE('',#345,#346,#395,.T.);
#272=EDGE_CURVE('',#346,#347,#28,.T.);
#273=EDGE_CURVE('',#347,#348,#396,.T.);
#274=EDGE_CURVE('',#348,#349,#29,.T.);
#275=EDGE_CURVE('',#349,#343,#397,.T.);
#276=EDGE_CURVE('',#350,#350,#398,.T.);
#277=EDGE_CURVE('',#351,#351,#399,.T.);
#278=EDGE_CURVE('',#352,#353,#30,.T.);
#279=EDGE_CURVE('',#352,#354,#31,.T.);
#280=EDGE_CURVE('',#354,#355,#32,.T.);
#281=EDGE_CURVE('',#355,#356,#400,.T.);
#282=EDGE_CURVE('',#356,#357,#33,.T.);
#283=EDGE_CURVE('',#357,#353,#401,.T.);
#284=EDGE_CURVE('',#358,#359,#34,.T.);
#285=EDGE_CURVE('',#358,#360,#35,.F.);
#286=EDGE_CURVE('',#360,#361,#36,.T.);
#287=EDGE_CURVE('',#361,#359,#37,.T.);
#288=EDGE_CURVE('',#362,#363,#38,.T.);
#289=EDGE_CURVE('',#362,#364,#39,.T.);
#290=EDGE_CURVE('',#364,#365,#40,.T.);
#291=EDGE_CURVE('',#365,#355,#41,.F.);
#292=EDGE_CURVE('',#354,#366,#402,.T.);
#293=EDGE_CURVE('',#367,#366,#42,.T.);
#294=EDGE_CURVE('',#368,#367,#43,.T.);
#295=EDGE_CURVE('',#369,#368,#44,.T.);
#296=EDGE_CURVE('',#369,#363,#403,.T.);
#297=EDGE_CURVE('',#356,#370,#45,.T.);
#298=EDGE_CURVE('',#370,#371,#46,.T.);
#299=EDGE_CURVE('',#371,#357,#47,.F.);
#300=EDGE_CURVE('',#372,#373,#48,.T.);
#301=EDGE_CURVE('',#374,#373,#49,.T.);
#302=EDGE_CURVE('',#374,#352,#404,.F.);
#303=EDGE_CURVE('',#353,#375,#50,.T.);
#304=EDGE_CURVE('',#376,#375,#51,.T.);
#305=EDGE_CURVE('',#376,#377,#52,.F.);
#306=EDGE_CURVE('',#377,#378,#53,.T.);
#307=EDGE_CURVE('',#378,#379,#405,.F.);
#308=EDGE_CURVE('',#372,#379,#54,.T.);
#309=EDGE_CURVE('',#363,#378,#55,.F.);
#310=EDGE_CURVE('',#377,#361,#406,.T.);
#311=EDGE_CURVE('',#360,#362,#407,.T.);
#312=EDGE_CURVE('',#364,#358,#408,.F.);
#313=EDGE_CURVE('',#359,#376,#409,.F.);
#314=EDGE_CURVE('',#375,#371,#410,.F.);
#315=EDGE_CURVE('',#370,#365,#411,.F.);
#316=EDGE_CURVE('',#367,#380,#56,.T.);
#317=EDGE_CURVE('',#380,#381,#412,.F.);
#318=EDGE_CURVE('',#382,#381,#57,.T.);
#319=EDGE_CURVE('',#382,#383,#413,.F.);
#320=EDGE_CURVE('',#368,#383,#58,.T.);
#321=EDGE_CURVE('',#344,#384,#59,.T.);
#322=EDGE_CURVE('',#385,#384,#60,.T.);
#323=EDGE_CURVE('',#385,#345,#61,.F.);
#324=EDGE_CURVE('',#379,#369,#62,.T.);
#325=EDGE_CURVE('',#383,#347,#63,.F.);
#326=EDGE_CURVE('',#346,#386,#64,.T.);
#327=EDGE_CURVE('',#386,#372,#65,.T.);
#328=EDGE_CURVE('',#381,#349,#66,.F.);
#329=EDGE_CURVE('',#348,#382,#67,.T.);
#330=EDGE_CURVE('',#366,#374,#68,.F.);
#331=EDGE_CURVE('',#387,#373,#69,.T.);
#332=EDGE_CURVE('',#387,#342,#70,.F.);
#333=EDGE_CURVE('',#343,#380,#71,.T.);
#334=EDGE_CURVE('',#384,#387,#414,.F.);
#335=EDGE_CURVE('',#386,#385,#415,.F.);
#336=EDGE_CURVE('',#388,#388,#416,.T.);
#337=EDGE_CURVE('',#389,#389,#417,.T.);
#338=EDGE_CURVE('',#390,#390,#418,.T.);
#339=EDGE_CURVE('',#391,#391,#419,.T.);
#340=VERTEX_POINT('',#794);
#341=VERTEX_POINT('',#796);
#342=VERTEX_POINT('',#798);
#343=VERTEX_POINT('',#799);
#344=VERTEX_POINT('',#801);
#345=VERTEX_POINT('',#803);
#346=VERTEX_POINT('',#805);
#347=VERTEX_POINT('',#807);
#348=VERTEX_POINT('',#809);
#349=VERTEX_POINT('',#811);
#350=VERTEX_POINT('',#814);
#351=VERTEX_POINT('',#816);
#352=VERTEX_POINT('',#819);
#353=VERTEX_POINT('',#820);
#354=VERTEX_POINT('',#822);
#355=VERTEX_POINT('',#824);
#356=VERTEX_POINT('',#826);
#357=VERTEX_POINT('',#828);
#358=VERTEX_POINT('',#832);
#359=VERTEX_POINT('',#833);
#360=VERTEX_POINT('',#835);
#361=VERTEX_POINT('',#837);
#362=VERTEX_POINT('',#841);
#363=VERTEX_POINT('',#842);
#364=VERTEX_POINT('',#844);
#365=VERTEX_POINT('',#846);
#366=VERTEX_POINT('',#849);
#367=VERTEX_POINT('',#851);
#368=VERTEX_POINT('',#853);
#369=VERTEX_POINT('',#855);
#370=VERTEX_POINT('',#859);
#371=VERTEX_POINT('',#861);
#372=VERTEX_POINT('',#865);
#373=VERTEX_POINT('',#866);
#374=VERTEX_POINT('',#868);
#375=VERTEX_POINT('',#871);
#376=VERTEX_POINT('',#873);
#377=VERTEX_POINT('',#875);
#378=VERTEX_POINT('',#877);
#379=VERTEX_POINT('',#879);
#380=VERTEX_POINT('',#892);
#381=VERTEX_POINT('',#894);
#382=VERTEX_POINT('',#896);
#383=VERTEX_POINT('',#898);
#384=VERTEX_POINT('',#902);
#385=VERTEX_POINT('',#904);
#386=VERTEX_POINT('',#910);
#387=VERTEX_POINT('',#918);
#388=VERTEX_POINT('',#926);
#389=VERTEX_POINT('',#930);
#390=VERTEX_POINT('',#934);
#391=VERTEX_POINT('',#938);
#392=CIRCLE('',#564,0.001);
#393=CIRCLE('',#565,0.001);
#394=CIRCLE('',#566,0.002);
#395=CIRCLE('',#567,0.002);
#396=CIRCLE('',#568,0.002);
#397=CIRCLE('',#569,0.002);
#398=CIRCLE('',#570,0.001);
#399=CIRCLE('',#571,0.001);
#400=CIRCLE('',#573,0.002);
#401=CIRCLE('',#574,0.002);
#402=CIRCLE('',#577,0.002);
#403=CIRCLE('',#578,0.002);
#404=CIRCLE('',#581,0.002);
#405=CIRCLE('',#582,0.002);
#406=CIRCLE('',#584,0.002);
#407=CIRCLE('',#585,0.002);
#408=CIRCLE('',#587,0.002);
#409=CIRCLE('',#588,0.002);
#410=CIRCLE('',#589,0.002);
#411=CIRCLE('',#590,0.002);
#412=CIRCLE('',#592,0.002);
#413=CIRCLE('',#593,0.002);
#414=CIRCLE('',#599,0.002);
#415=CIRCLE('',#600,0.002);
#416=CIRCLE('',#602,0.001);
#417=CIRCLE('',#605,0.001);
#418=CIRCLE('',#608,0.001);
#419=CIRCLE('',#611,0.001);
#420=EDGE_LOOP('',(#118));
#421=EDGE_LOOP('',(#119));
#422=EDGE_LOOP('',(#120,#121,#122,#123,#124,#125,#126,#127));
#423=EDGE_LOOP('',(#128));
#424=EDGE_LOOP('',(#129));
#425=EDGE_LOOP('',(#130,#131,#132,#133,#134,#135));
#426=EDGE_LOOP('',(#136,#137,#138,#139));
#427=EDGE_LOOP('',(#140,#141,#142,#143,#144,#145,#146,#147,#148,#149));
#428=EDGE_LOOP('',(#150,#151,#152,#153));
#429=EDGE_LOOP('',(#154,#155,#156,#157,#158,#159,#160,#161,#162,#163));
#430=EDGE_LOOP('',(#164,#165,#166,#167,#168,#169));
#431=EDGE_LOOP('',(#170,#171,#172,#173,#174,#175,#176,#177));
#432=EDGE_LOOP('',(#178,#179,#180,#181,#182,#183));
#433=EDGE_LOOP('',(#184,#185,#186,#187));
#434=EDGE_LOOP('',(#188,#189,#190,#191,#192,#193,#194,#195));
#435=EDGE_LOOP('',(#196,#197,#198,#199));
#436=EDGE_LOOP('',(#200,#201,#202,#203,#204,#205,#206,#207));
#437=EDGE_LOOP('',(#208,#209,#210,#211,#212,#213));
#438=EDGE_LOOP('',(#214));
#439=EDGE_LOOP('',(#215));
#440=EDGE_LOOP('',(#216));
#441=EDGE_LOOP('',(#217));
#442=EDGE_LOOP('',(#218));
#443=EDGE_LOOP('',(#219));
#444=EDGE_LOOP('',(#220));
#445=EDGE_LOOP('',(#221));
#446=EDGE_LOOP('',(#222));
#447=EDGE_LOOP('',(#223));
#448=EDGE_LOOP('',(#224));
#449=EDGE_LOOP('',(#225));
#450=EDGE_LOOP('',(#226,#227,#228,#229));
#451=EDGE_LOOP('',(#230,#231,#232,#233));
#452=EDGE_LOOP('',(#234,#235,#236,#237));
#453=EDGE_LOOP('',(#238,#239,#240,#241));
#454=EDGE_LOOP('',(#242,#243,#244,#245));
#455=EDGE_LOOP('',(#246,#247,#248,#249));
#456=EDGE_LOOP('',(#250,#251,#252,#253));
#457=EDGE_LOOP('',(#254,#255,#256,#257));
#458=EDGE_LOOP('',(#258,#259,#260,#261));
#459=EDGE_LOOP('',(#262,#263,#264,#265));
#460=FACE_BOUND('',#420,.T.);
#461=FACE_BOUND('',#421,.T.);
#462=FACE_BOUND('',#422,.T.);
#463=FACE_BOUND('',#423,.T.);
#464=FACE_BOUND('',#424,.T.);
#465=FACE_BOUND('',#425,.T.);
#466=FACE_BOUND('',#426,.T.);
#467=FACE_BOUND('',#427,.T.);
#468=FACE_BOUND('',#428,.T.);
#469=FACE_BOUND('',#429,.T.);
#470=FACE_BOUND('',#430,.T.);
#471=FACE_BOUND('',#431,.T.);
#472=FACE_BOUND('',#432,.T.);
#473=FACE_BOUND('',#433,.T.);
#474=FACE_BOUND('',#434,.T.);
#475=FACE_BOUND('',#435,.T.);
#476=FACE_BOUND('',#436,.T.);
#477=FACE_BOUND('',#437,.T.);
#478=FACE_BOUND('',#438,.T.);
#479=FACE_BOUND('',#439,.T.);
#480=FACE_BOUND('',#440,.T.);
#481=FACE_BOUND('',#441,.T.);
#482=FACE_BOUND('',#442,.T.);
#483=FACE_BOUND('',#443,.T.);
#484=FACE_BOUND('',#444,.T.);
#485=FACE_BOUND('',#445,.T.);
#486=FACE_BOUND('',#446,.T.);
#487=FACE_BOUND('',#447,.T.);
#488=FACE_BOUND('',#448,.T.);
#489=FACE_BOUND('',#449,.T.);
#490=FACE_BOUND('',#450,.T.);
#491=FACE_BOUND('',#451,.T.);
#492=FACE_BOUND('',#452,.T.);
#493=FACE_BOUND('',#453,.T.);
#494=FACE_BOUND('',#454,.T.);
#495=FACE_BOUND('',#455,.T.);
#496=FACE_BOUND('',#456,.T.);
#497=FACE_BOUND('',#457,.T.);
#498=FACE_BOUND('',#458,.T.);
#499=FACE_BOUND('',#459,.T.);
#500=PLANE('',#563);
#501=PLANE('',#572);
#502=PLANE('',#575);
#503=PLANE('',#576);
#504=PLANE('',#579);
#505=PLANE('',#580);
#506=PLANE('',#583);
#507=PLANE('',#586);
#508=PLANE('',#591);
#509=PLANE('',#594);
#510=PLANE('',#595);
#511=PLANE('',#596);
#512=PLANE('',#597);
#513=PLANE('',#598);
#514=PLANE('',#603);
#515=PLANE('',#606);
#516=PLANE('',#609);
#517=PLANE('',#612);
#518=ADVANCED_FACE('',(#460,#461,#462,#463,#464),#500,.T.);
#519=ADVANCED_FACE('',(#465),#501,.T.);
#520=ADVANCED_FACE('',(#466),#502,.T.);
#521=ADVANCED_FACE('',(#467),#503,.F.);
#522=ADVANCED_FACE('',(#468),#504,.F.);
#523=ADVANCED_FACE('',(#469),#505,.T.);
#524=ADVANCED_FACE('',(#470),#506,.T.);
#525=ADVANCED_FACE('',(#471),#507,.F.);
#526=ADVANCED_FACE('',(#472),#508,.F.);
#527=ADVANCED_FACE('',(#473),#509,.T.);
#528=ADVANCED_FACE('',(#474),#510,.F.);
#529=ADVANCED_FACE('',(#475),#511,.F.);
#530=ADVANCED_FACE('',(#476),#512,.T.);
#531=ADVANCED_FACE('',(#477),#513,.F.);
#532=ADVANCED_FACE('',(#478,#479),#12,.F.);
#533=ADVANCED_FACE('',(#480),#514,.T.);
#534=ADVANCED_FACE('',(#481,#482),#13,.F.);
#535=ADVANCED_FACE('',(#483),#515,.T.);
#536=ADVANCED_FACE('',(#484,#485),#14,.F.);
#537=ADVANCED_FACE('',(#486),#516,.T.);
#538=ADVANCED_FACE('',(#487,#488),#15,.F.);
#539=ADVANCED_FACE('',(#489),#517,.T.);
#540=ADVANCED_FACE('',(#490),#16,.T.);
#541=ADVANCED_FACE('',(#491),#17,.T.);
#542=ADVANCED_FACE('',(#492),#18,.T.);
#543=ADVANCED_FACE('',(#493),#19,.T.);
#544=ADVANCED_FACE('',(#494),#20,.T.);
#545=ADVANCED_FACE('',(#495),#21,.T.);
#546=ADVANCED_FACE('',(#496),#22,.T.);
#547=ADVANCED_FACE('',(#497),#23,.T.);
#548=ADVANCED_FACE('',(#498),#24,.F.);
#549=ADVANCED_FACE('',(#499),#25,.F.);
#550=CLOSED_SHELL('',(#518,#519,#520,#521,#522,#523,#524,#525,#526,#527,#528,#529,#530,#531,#532,#533,#534,#535,#536,#537,#538,#539,#540,#541,#542,#543,#544,#545,#546,#547,#548,#549));
#551=STYLED_ITEM('',(#552),#559);
#552=PRESENTATION_STYLE_ASSIGNMENT((#553));
#553=SURFACE_STYLE_USAGE(.BOTH.,#554);
#554=SURFACE_SIDE_STYLE('',(#555));
#555=SURFACE_STYLE_FILL_AREA(#556);
#556=FILL_AREA_STYLE('',(#557));
#557=FILL_AREA_STYLE_COLOUR('',#558);
#558=COLOUR_RGB('',0.615686274509804,0.811764705882353,0.929411764705882);
#559=MANIFOLD_SOLID_BREP('Part 1',#550);
#560=SHAPE_DEFINITION_REPRESENTATION(#956,#561);
#561=SHAPE_REPRESENTATION('Part 1',(#562),#951);
#562=AXIS2_PLACEMENT_3D('',#791,#623,#624);
#563=AXIS2_PLACEMENT_3D('',#792,#625,#626);
#564=AXIS2_PLACEMENT_3D('',#793,#627,#628);
#565=AXIS2_PLACEMENT_3D('',#795,#629,#630);
#566=AXIS2_PLACEMENT_3D('',#800,#632,#633);
#567=AXIS2_PLACEMENT_3D('',#804,#635,#636);
#568=AXIS2_PLACEMENT_3D('',#808,#638,#639);
#569=AXIS2_PLACEMENT_3D('',#812,#641,#642);
#570=AXIS2_PLACEMENT_3D('',#813,#643,#644);
#571=AXIS2_PLACEMENT_3D('',#815,#645,#646);
#572=AXIS2_PLACEMENT_3D('',#817,#647,#648);
#573=AXIS2_PLACEMENT_3D('',#825,#652,#653);
#574=AXIS2_PLACEMENT_3D('',#829,#655,#656);
#575=AXIS2_PLACEMENT_3D('',#830,#657,#658);
#576=AXIS2_PLACEMENT_3D('',#839,#663,#664);
#577=AXIS2_PLACEMENT_3D('',#848,#669,#670);
#578=AXIS2_PLACEMENT_3D('',#856,#674,#675);
#579=AXIS2_PLACEMENT_3D('',#857,#676,#677);
#580=AXIS2_PLACEMENT_3D('',#863,#681,#682);
#581=AXIS2_PLACEMENT_3D('',#869,#685,#686);
#582=AXIS2_PLACEMENT_3D('',#878,#691,#692);
#583=AXIS2_PLACEMENT_3D('',#881,#694,#695);
#584=AXIS2_PLACEMENT_3D('',#883,#697,#698);
#585=AXIS2_PLACEMENT_3D('',#884,#699,#700);
#586=AXIS2_PLACEMENT_3D('',#885,#701,#702);
#587=AXIS2_PLACEMENT_3D('',#886,#703,#704);
#588=AXIS2_PLACEMENT_3D('',#887,#705,#706);
#589=AXIS2_PLACEMENT_3D('',#888,#707,#708);
#590=AXIS2_PLACEMENT_3D('',#889,#709,#710);
#591=AXIS2_PLACEMENT_3D('',#890,#711,#712);
#592=AXIS2_PLACEMENT_3D('',#893,#714,#715);
#593=AXIS2_PLACEMENT_3D('',#897,#717,#718);
#594=AXIS2_PLACEMENT_3D('',#900,#720,#721);
#595=AXIS2_PLACEMENT_3D('',#906,#725,#726);
#596=AXIS2_PLACEMENT_3D('',#912,#731,#732);
#597=AXIS2_PLACEMENT_3D('',#915,#735,#736);
#598=AXIS2_PLACEMENT_3D('',#921,#741,#742);
#599=AXIS2_PLACEMENT_3D('',#922,#743,#744);
#600=AXIS2_PLACEMENT_3D('',#923,#745,#746);
#601=AXIS2_PLACEMENT_3D('',#924,#747,#748);
#602=AXIS2_PLACEMENT_3D('',#925,#749,#750);
#603=AXIS2_PLACEMENT_3D('',#927,#751,#752);
#604=AXIS2_PLACEMENT_3D('',#928,#753,#754);
#605=AXIS2_PLACEMENT_3D('',#929,#755,#756);
#606=AXIS2_PLACEMENT_3D('',#931,#757,#758);
#607=AXIS2_PLACEMENT_3D('',#932,#759,#760);
#608=AXIS2_PLACEMENT_3D('',#933,#761,#762);
#609=AXIS2_PLACEMENT_3D('',#935,#763,#764);
#610=AXIS2_PLACEMENT_3D('',#936,#765,#766);
#611=AXIS2_PLACEMENT_3D('',#937,#767,#768);
#612=AXIS2_PLACEMENT_3D('',#939,#769,#770);
#613=AXIS2_PLACEMENT_3D('',#940,#771,#772);
#614=AXIS2_PLACEMENT_3D('',#941,#773,#774);
#615=AXIS2_PLACEMENT_3D('',#942,#775,#776);
#616=AXIS2_PLACEMENT_3D('',#943,#777,#778);
#617=AXIS2_PLACEMENT_3D('',#944,#779,#780);
#618=AXIS2_PLACEMENT_3D('',#945,#781,#782);
#619=AXIS2_PLACEMENT_3D('',#946,#783,#784);
#620=AXIS2_PLACEMENT_3D('',#947,#785,#786);
#621=AXIS2_PLACEMENT_3D('',#948,#787,#788);
#622=AXIS2_PLACEMENT_3D('',#949,#789,#790);
#623=DIRECTION('',(0.,0.,1.));
#624=DIRECTION('',(1.,0.,0.));
#625=DIRECTION('',(0.,0.,1.));
#626=DIRECTION('',(1.,0.,0.));
#627=DIRECTION('',(0.,0.,-1.));
#628=DIRECTION('',(1.,0.,0.));
#629=DIRECTION('',(0.,0.,1.));
#630=DIRECTION('',(1.,0.,0.));
#631=DIRECTION('',(4.33680868994202E-17,1.,0.));
#632=DIRECTION('',(0.,0.,1.));
#633=DIRECTION('',(1.,0.,0.));
#634=DIRECTION('',(-1.,0.,0.));
#635=DIRECTION('',(0.,0.,1.));
#636=DIRECTION('',(1.,0.,0.));
#637=DIRECTION('',(4.33680868994202E-17,1.,0.));
#638=DIRECTION('',(0.,0.,1.));
#639=DIRECTION('',(1.,0.,0.));
#640=DIRECTION('',(-1.,0.,0.));
#641=DIRECTION('',(0.,0.,1.));
#642=DIRECTION('',(1.,0.,0.));
#643=DIRECTION('',(0.,0.,1.));
#644=DIRECTION('',(1.,0.,0.));
#645=DIRECTION('',(0.,0.,-1.));
#646=DIRECTION('',(1.,0.,0.));
#647=DIRECTION('',(0.,0.,1.));
#648=DIRECTION('',(1.,0.,0.));
#649=DIRECTION('',(-1.,0.,0.));
#650=DIRECTION('',(4.33680868994202E-17,1.,0.));
#651=DIRECTION('',(-1.,0.,0.));
#652=DIRECTION('',(0.,0.,1.));
#653=DIRECTION('',(1.,0.,0.));
#654=DIRECTION('',(0.,-1.,0.));
#655=DIRECTION('',(0.,0.,1.));
#656=DIRECTION('',(1.,0.,0.));
#657=DIRECTION('',(1.,0.,0.));
#658=DIRECTION('',(0.,0.,-1.));
#659=DIRECTION('',(0.,-1.,0.));
#660=DIRECTION('',(0.,0.,-1.));
#661=DIRECTION('',(0.,-1.,0.));
#662=DIRECTION('',(0.,0.,-1.));
#663=DIRECTION('',(0.,-1.,0.));
#664=DIRECTION('',(0.,0.,-1.));
#665=DIRECTION('',(-1.,0.,0.));
#666=DIRECTION('',(0.,0.,-1.));
#667=DIRECTION('',(-1.,0.,0.));
#668=DIRECTION('',(0.,0.,-1.));
#669=DIRECTION('',(0.,-1.,0.));
#670=DIRECTION('',(0.,0.,-1.));
#671=DIRECTION('',(0.,0.,1.));
#672=DIRECTION('',(-1.,0.,0.));
#673=DIRECTION('',(0.,0.,-1.));
#674=DIRECTION('',(0.,-1.,0.));
#675=DIRECTION('',(0.,0.,-1.));
#676=DIRECTION('',(1.,0.,0.));
#677=DIRECTION('',(0.,0.,-1.));
#678=DIRECTION('',(0.,0.,-1.));
#679=DIRECTION('',(0.,-1.,0.));
#680=DIRECTION('',(0.,0.,-1.));
#681=DIRECTION('',(0.,-1.,0.));
#682=DIRECTION('',(0.,0.,-1.));
#683=DIRECTION('',(-1.,0.,0.));
#684=DIRECTION('',(0.,0.,-1.));
#685=DIRECTION('',(0.,-1.,0.));
#686=DIRECTION('',(0.,0.,-1.));
#687=DIRECTION('',(0.,0.,-1.));
#688=DIRECTION('',(-1.,0.,0.));
#689=DIRECTION('',(0.,0.,-1.));
#690=DIRECTION('',(-1.,0.,0.));
#691=DIRECTION('',(0.,-1.,0.));
#692=DIRECTION('',(0.,0.,-1.));
#693=DIRECTION('',(0.,0.,1.));
#694=DIRECTION('',(0.,0.,1.));
#695=DIRECTION('',(1.,0.,0.));
#696=DIRECTION('',(4.33680868994202E-17,1.,0.));
#697=DIRECTION('',(0.,0.,1.));
#698=DIRECTION('',(1.,0.,0.));
#699=DIRECTION('',(0.,0.,1.));
#700=DIRECTION('',(1.,0.,0.));
#701=DIRECTION('',(0.,0.,1.));
#702=DIRECTION('',(1.,0.,0.));
#703=DIRECTION('',(0.,0.,1.));
#704=DIRECTION('',(1.,0.,0.));
#705=DIRECTION('',(0.,0.,1.));
#706=DIRECTION('',(1.,0.,0.));
#707=DIRECTION('',(0.,0.,1.));
#708=DIRECTION('',(1.,0.,0.));
#709=DIRECTION('',(0.,0.,1.));
#710=DIRECTION('',(1.,0.,0.));
#711=DIRECTION('',(0.,0.,1.));
#712=DIRECTION('',(1.,0.,0.));
#713=DIRECTION('',(4.33680868994202E-17,1.,0.));
#714=DIRECTION('',(0.,0.,1.));
#715=DIRECTION('',(1.,0.,0.));
#716=DIRECTION('',(-1.,0.,0.));
#717=DIRECTION('',(0.,0.,1.));
#718=DIRECTION('',(1.,0.,0.));
#719=DIRECTION('',(4.33680868994202E-17,1.,0.));
#720=DIRECTION('',(0.,-1.,0.));
#721=DIRECTION('',(0.,0.,-1.));
#722=DIRECTION('',(0.,0.,-1.));
#723=DIRECTION('',(-1.,0.,0.));
#724=DIRECTION('',(0.,0.,-1.));
#725=DIRECTION('',(-1.,4.33680868994202E-17,0.));
#726=DIRECTION('',(-4.33680868994202E-17,-1.,0.));
#727=DIRECTION('',(4.33680868994202E-17,1.,0.));
#728=DIRECTION('',(0.,0.,-1.));
#729=DIRECTION('',(0.,0.,-1.));
#730=DIRECTION('',(4.33680868994202E-17,1.,0.));
#731=DIRECTION('',(0.,-1.,0.));
#732=DIRECTION('',(0.,0.,-1.));
#733=DIRECTION('',(0.,0.,-1.));
#734=DIRECTION('',(0.,0.,-1.));
#735=DIRECTION('',(-1.,4.33680868994202E-17,0.));
#736=DIRECTION('',(-4.33680868994202E-17,-1.,0.));
#737=DIRECTION('',(4.33680868994202E-17,1.,0.));
#738=DIRECTION('',(4.33680868994202E-17,1.,0.));
#739=DIRECTION('',(0.,0.,-1.));
#740=DIRECTION('',(0.,0.,-1.));
#741=DIRECTION('',(0.,0.,1.));
#742=DIRECTION('',(1.,0.,0.));
#743=DIRECTION('',(0.,0.,1.));
#744=DIRECTION('',(1.,0.,0.));
#745=DIRECTION('',(0.,0.,1.));
#746=DIRECTION('',(1.,0.,0.));
#747=DIRECTION('',(0.,0.,1.));
#748=DIRECTION('',(1.,0.,0.));
#749=DIRECTION('',(0.,0.,1.));
#750=DIRECTION('',(1.,0.,0.));
#751=DIRECTION('',(0.,0.,1.));
#752=DIRECTION('',(1.,0.,0.));
#753=DIRECTION('',(0.,0.,1.));
#754=DIRECTION('',(1.,0.,0.));
#755=DIRECTION('',(0.,0.,-1.));
#756=DIRECTION('',(1.,0.,0.));
#757=DIRECTION('',(0.,0.,1.));
#758=DIRECTION('',(1.,0.,0.));
#759=DIRECTION('',(0.,0.,1.));
#760=DIRECTION('',(1.,0.,0.));
#761=DIRECTION('',(0.,0.,1.));
#762=DIRECTION('',(1.,0.,0.));
#763=DIRECTION('',(0.,0.,1.));
#764=DIRECTION('',(1.,0.,0.));
#765=DIRECTION('',(0.,0.,1.));
#766=DIRECTION('',(1.,0.,0.));
#767=DIRECTION('',(0.,0.,-1.));
#768=DIRECTION('',(1.,0.,0.));
#769=DIRECTION('',(0.,0.,1.));
#770=DIRECTION('',(1.,0.,0.));
#771=DIRECTION('',(0.,0.,-1.));
#772=DIRECTION('',(-1.,0.,0.));
#773=DIRECTION('',(0.,0.,1.));
#774=DIRECTION('',(1.,0.,0.));
#775=DIRECTION('',(0.,0.,1.));
#776=DIRECTION('',(1.,0.,0.));
#777=DIRECTION('',(0.,0.,-1.));
#778=DIRECTION('',(-1.,0.,0.));
#779=DIRECTION('',(0.,0.,1.));
#780=DIRECTION('',(1.,0.,0.));
#781=DIRECTION('',(0.,0.,-1.));
#782=DIRECTION('',(-1.,0.,0.));
#783=DIRECTION('',(0.,0.,1.));
#784=DIRECTION('',(1.,0.,0.));
#785=DIRECTION('',(0.,0.,-1.));
#786=DIRECTION('',(-1.,0.,0.));
#787=DIRECTION('',(4.33680868994202E-17,1.,0.));
#788=DIRECTION('',(-1.,4.33680868994202E-17,0.));
#789=DIRECTION('',(-4.33680868994202E-17,-1.,0.));
#790=DIRECTION('',(1.,-4.33680868994202E-17,0.));
#791=CARTESIAN_POINT('',(0.,0.,0.));
#792=CARTESIAN_POINT('',(0.,0.,0.006));
#793=CARTESIAN_POINT('',(0.01,0.008,0.006));
#794=CARTESIAN_POINT('',(0.011,0.008,0.006));
#795=CARTESIAN_POINT('',(-0.01,0.008,0.006));
#796=CARTESIAN_POINT('',(-0.009,0.008,0.006));
#797=CARTESIAN_POINT('',(-0.0125,0.,0.006));
#798=CARTESIAN_POINT('',(-0.0125,-0.018,0.006));
#799=CARTESIAN_POINT('',(-0.0125,0.018,0.006));
#800=CARTESIAN_POINT('',(-0.0105,-0.018,0.006));
#801=CARTESIAN_POINT('',(-0.0105,-0.02,0.006));
#802=CARTESIAN_POINT('',(0.,-0.02,0.006));
#803=CARTESIAN_POINT('',(0.0105,-0.02,0.006));
#804=CARTESIAN_POINT('',(0.0105,-0.018,0.006));
#805=CARTESIAN_POINT('',(0.0125,-0.018,0.006));
#806=CARTESIAN_POINT('',(0.0125,0.,0.006));
#807=CARTESIAN_POINT('',(0.0125,0.018,0.006));
#808=CARTESIAN_POINT('',(0.0105,0.018,0.006));
#809=CARTESIAN_POINT('',(0.0105,0.02,0.006));
#810=CARTESIAN_POINT('',(1.7347234759768E-18,0.02,0.006));
#811=CARTESIAN_POINT('',(-0.0105,0.02,0.006));
#812=CARTESIAN_POINT('',(-0.0105,0.018,0.006));
#813=CARTESIAN_POINT('',(0.01,-0.008,0.006));
#814=CARTESIAN_POINT('',(0.011,-0.008,0.006));
#815=CARTESIAN_POINT('',(-0.01,-0.008,0.006));
#816=CARTESIAN_POINT('',(-0.009,-0.008,0.006));
#817=CARTESIAN_POINT('',(0.,-3.46944695195361E-18,0.003));
#818=CARTESIAN_POINT('',(0.,-0.015,0.003));
#819=CARTESIAN_POINT('',(-0.0145,-0.015,0.003));
#820=CARTESIAN_POINT('',(-0.018,-0.015,0.003));
#821=CARTESIAN_POINT('',(-0.0145,0.015,0.003));
#822=CARTESIAN_POINT('',(-0.0145,0.015,0.003));
#823=CARTESIAN_POINT('',(3.46944695195361E-18,0.015,0.003));
#824=CARTESIAN_POINT('',(-0.018,0.015,0.003));
#825=CARTESIAN_POINT('',(-0.018,0.013,0.003));
#826=CARTESIAN_POINT('',(-0.02,0.013,0.003));
#827=CARTESIAN_POINT('',(-0.02,-3.46944695195361E-18,0.003));
#828=CARTESIAN_POINT('',(-0.02,-0.013,0.003));
#829=CARTESIAN_POINT('',(-0.018,-0.013,0.003));
#830=CARTESIAN_POINT('',(0.02,-3.46944695195361E-18,0.003));
#831=CARTESIAN_POINT('',(0.02,-3.46944695195361E-18,0.));
#832=CARTESIAN_POINT('',(0.02,0.013,0.));
#833=CARTESIAN_POINT('',(0.02,-0.013,0.));
#834=CARTESIAN_POINT('',(0.02,0.013,0.003));
#835=CARTESIAN_POINT('',(0.02,0.013,0.003));
#836=CARTESIAN_POINT('',(0.02,-3.46944695195361E-18,0.003));
#837=CARTESIAN_POINT('',(0.02,-0.013,0.003));
#838=CARTESIAN_POINT('',(0.02,-0.013,0.003));
#839=CARTESIAN_POINT('',(3.46944695195361E-18,0.015,0.003));
#840=CARTESIAN_POINT('',(3.46944695195361E-18,0.015,0.003));
#841=CARTESIAN_POINT('',(0.018,0.015,0.003));
#842=CARTESIAN_POINT('',(0.0145,0.015,0.003));
#843=CARTESIAN_POINT('',(0.018,0.015,0.));
#844=CARTESIAN_POINT('',(0.018,0.015,0.));
#845=CARTESIAN_POINT('',(3.46944695195361E-18,0.015,0.));
#846=CARTESIAN_POINT('',(-0.018,0.015,0.));
#847=CARTESIAN_POINT('',(-0.018,0.015,0.003));
#848=CARTESIAN_POINT('',(-0.0145,0.015,0.005));
#849=CARTESIAN_POINT('',(-0.0125,0.015,0.005));
#850=CARTESIAN_POINT('',(-0.0125,0.015,0.006));
#851=CARTESIAN_POINT('',(-0.0125,0.015,0.003));
#852=CARTESIAN_POINT('',(3.46944695195361E-18,0.015,0.003));
#853=CARTESIAN_POINT('',(0.0125,0.015,0.003));
#854=CARTESIAN_POINT('',(0.0125,0.015,0.003));
#855=CARTESIAN_POINT('',(0.0125,0.015,0.005));
#856=CARTESIAN_POINT('',(0.0145,0.015,0.005));
#857=CARTESIAN_POINT('',(-0.02,-3.46944695195361E-18,0.003));
#858=CARTESIAN_POINT('',(-0.02,0.013,0.003));
#859=CARTESIAN_POINT('',(-0.02,0.013,0.));
#860=CARTESIAN_POINT('',(-0.02,-3.46944695195361E-18,0.));
#861=CARTESIAN_POINT('',(-0.02,-0.013,0.));
#862=CARTESIAN_POINT('',(-0.02,-0.013,0.003));
#863=CARTESIAN_POINT('',(0.,-0.015,0.003));
#864=CARTESIAN_POINT('',(0.,-0.015,0.003));
#865=CARTESIAN_POINT('',(0.0125,-0.015,0.003));
#866=CARTESIAN_POINT('',(-0.0125,-0.015,0.003));
#867=CARTESIAN_POINT('',(-0.0125,-0.015,0.003));
#868=CARTESIAN_POINT('',(-0.0125,-0.015,0.005));
#869=CARTESIAN_POINT('',(-0.0145,-0.015,0.005));
#870=CARTESIAN_POINT('',(-0.018,-0.015,0.));
#871=CARTESIAN_POINT('',(-0.018,-0.015,0.));
#872=CARTESIAN_POINT('',(0.,-0.015,0.));
#873=CARTESIAN_POINT('',(0.018,-0.015,0.));
#874=CARTESIAN_POINT('',(0.018,-0.015,0.003));
#875=CARTESIAN_POINT('',(0.018,-0.015,0.003));
#876=CARTESIAN_POINT('',(0.,-0.015,0.003));
#877=CARTESIAN_POINT('',(0.0145,-0.015,0.003));
#878=CARTESIAN_POINT('',(0.0145,-0.015,0.005));
#879=CARTESIAN_POINT('',(0.0125,-0.015,0.005));
#880=CARTESIAN_POINT('',(0.0125,-0.015,0.006));
#881=CARTESIAN_POINT('',(0.,-3.46944695195361E-18,0.003));
#882=CARTESIAN_POINT('',(0.0145,-4.0982842119952E-18,0.003));
#883=CARTESIAN_POINT('',(0.018,-0.013,0.003));
#884=CARTESIAN_POINT('',(0.018,0.013,0.003));
#885=CARTESIAN_POINT('',(0.,-3.46944695195361E-18,0.));
#886=CARTESIAN_POINT('',(0.018,0.013,0.));
#887=CARTESIAN_POINT('',(0.018,-0.013,0.));
#888=CARTESIAN_POINT('',(-0.018,-0.013,0.));
#889=CARTESIAN_POINT('',(-0.018,0.013,0.));
#890=CARTESIAN_POINT('',(0.,0.,0.003));
#891=CARTESIAN_POINT('',(-0.0125,0.,0.003));
#892=CARTESIAN_POINT('',(-0.0125,0.018,0.003));
#893=CARTESIAN_POINT('',(-0.0105,0.018,0.003));
#894=CARTESIAN_POINT('',(-0.0105,0.02,0.003));
#895=CARTESIAN_POINT('',(1.7347234759768E-18,0.02,0.003));
#896=CARTESIAN_POINT('',(0.0105,0.02,0.003));
#897=CARTESIAN_POINT('',(0.0105,0.018,0.003));
#898=CARTESIAN_POINT('',(0.0125,0.018,0.003));
#899=CARTESIAN_POINT('',(0.0125,0.,0.003));
#900=CARTESIAN_POINT('',(0.,-0.02,0.006));
#901=CARTESIAN_POINT('',(-0.0105,-0.02,0.006));
#902=CARTESIAN_POINT('',(-0.0105,-0.02,0.003));
#903=CARTESIAN_POINT('',(0.,-0.02,0.003));
#904=CARTESIAN_POINT('',(0.0105,-0.02,0.003));
#905=CARTESIAN_POINT('',(0.0105,-0.02,0.006));
#906=CARTESIAN_POINT('',(0.0125,0.,0.006));
#907=CARTESIAN_POINT('',(0.0125,0.,0.005));
#908=CARTESIAN_POINT('',(0.0125,0.018,0.006));
#909=CARTESIAN_POINT('',(0.0125,-0.018,0.003));
#910=CARTESIAN_POINT('',(0.0125,-0.018,0.003));
#911=CARTESIAN_POINT('',(0.0125,0.,0.003));
#912=CARTESIAN_POINT('',(1.7347234759768E-18,0.02,0.006));
#913=CARTESIAN_POINT('',(-0.0105,0.02,0.006));
#914=CARTESIAN_POINT('',(0.0105,0.02,0.006));
#915=CARTESIAN_POINT('',(-0.0125,0.,0.006));
#916=CARTESIAN_POINT('',(-0.0125,-0.015,0.005));
#917=CARTESIAN_POINT('',(-0.0125,0.,0.003));
#918=CARTESIAN_POINT('',(-0.0125,-0.018,0.003));
#919=CARTESIAN_POINT('',(-0.0125,-0.018,0.006));
#920=CARTESIAN_POINT('',(-0.0125,0.018,0.003));
#921=CARTESIAN_POINT('',(0.,0.,0.003));
#922=CARTESIAN_POINT('',(-0.0105,-0.018,0.003));
#923=CARTESIAN_POINT('',(0.0105,-0.018,0.003));
#924=CARTESIAN_POINT('',(-0.01,0.008,0.003));
#925=CARTESIAN_POINT('',(-0.01,0.008,0.003));
#926=CARTESIAN_POINT('',(-0.009,0.008,0.003));
#927=CARTESIAN_POINT('',(3.46944695195361E-18,0.,0.003));
#928=CARTESIAN_POINT('',(0.01,0.008,0.003));
#929=CARTESIAN_POINT('',(0.01,0.008,0.003));
#930=CARTESIAN_POINT('',(0.011,0.008,0.003));
#931=CARTESIAN_POINT('',(3.46944695195361E-18,0.,0.003));
#932=CARTESIAN_POINT('',(0.01,-0.008,0.003));
#933=CARTESIAN_POINT('',(0.01,-0.008,0.003));
#934=CARTESIAN_POINT('',(0.011,-0.008,0.003));
#935=CARTESIAN_POINT('',(3.46944695195361E-18,0.,0.003));
#936=CARTESIAN_POINT('',(-0.01,-0.008,0.003));
#937=CARTESIAN_POINT('',(-0.01,-0.008,0.003));
#938=CARTESIAN_POINT('',(-0.009,-0.008,0.003));
#939=CARTESIAN_POINT('',(3.46944695195361E-18,0.,0.003));
#940=CARTESIAN_POINT('',(-0.0105,-0.018,0.006));
#941=CARTESIAN_POINT('',(0.0105,-0.018,0.006));
#942=CARTESIAN_POINT('',(-0.0105,0.018,0.006));
#943=CARTESIAN_POINT('',(0.0105,0.018,0.006));
#944=CARTESIAN_POINT('',(0.018,0.013,0.003));
#945=CARTESIAN_POINT('',(-0.018,0.013,0.003));
#946=CARTESIAN_POINT('',(-0.018,-0.013,0.003));
#947=CARTESIAN_POINT('',(0.018,-0.013,0.003));
#948=CARTESIAN_POINT('',(0.0145,-8.67361737988404E-20,0.005));
#949=CARTESIAN_POINT('',(-0.0145,-2.84060969191202E-18,0.005));
#950=MECHANICAL_DESIGN_GEOMETRIC_PRESENTATION_REPRESENTATION('',(#551),#951);
#951=(
GEOMETRIC_REPRESENTATION_CONTEXT(3)
GLOBAL_UNCERTAINTY_ASSIGNED_CONTEXT((#952))
GLOBAL_UNIT_ASSIGNED_CONTEXT((#955,#954,#953))
REPRESENTATION_CONTEXT('Part 1','TOP_LEVEL_ASSEMBLY_PART')
);
#952=UNCERTAINTY_MEASURE_WITH_UNIT(LENGTH_MEASURE(1.E-08),#955,'DISTANCE_ACCURACY_VALUE','Maximum Tolerance applied to model');
#953=(
NAMED_UNIT(*)
SI_UNIT($,.STERADIAN.)
SOLID_ANGLE_UNIT()
);
#954=(
NAMED_UNIT(*)
PLANE_ANGLE_UNIT()
SI_UNIT($,.RADIAN.)
);
#955=(
LENGTH_UNIT()
NAMED_UNIT(*)
SI_UNIT($,.METRE.)
);
#956=PRODUCT_DEFINITION_SHAPE('','',#957);
#957=PRODUCT_DEFINITION('','',#959,#958);
#958=PRODUCT_DEFINITION_CONTEXT('',#965,'design');
#959=PRODUCT_DEFINITION_FORMATION_WITH_SPECIFIED_SOURCE('','',#961,.NOT_KNOWN.);
#960=PRODUCT_RELATED_PRODUCT_CATEGORY('','',(#961));
#961=PRODUCT('Part 1','Part 1','Part 1',(#963));
#962=PRODUCT_CATEGORY('','');
#963=PRODUCT_CONTEXT('',#965,'mechanical');
#964=APPLICATION_PROTOCOL_DEFINITION('international standard','ap242_managed_model_based_3d_engineering',2020,#965);
#965=APPLICATION_CONTEXT('managed model based 3d engineering');
ENDSEC;
END-ISO-10303-21;
